<svg xmlns="http://www.w3.org/2000/svg" xmlns:ev="http://www.w3.org/2001/xml-events" xmlns:xlink="http://www.w3.org/1999/xlink" width="2064" height="1584" class="st29" color-interpolation-filters="sRGB" viewBox="0 0 1548 1188" xml:space="preserve"><style type="text/css">.st1{fill:#fce4da;stroke:#f37b49;stroke-linecap:round;stroke-linejoin:round;stroke-width:1}.st2{fill:#a0370b;font-family:Franklin Gothic Demi;font-size:1.00001em}.st3{font-size:1em}.st4{fill:#fff;stroke:#f37b49;stroke-linecap:round;stroke-linejoin:round;stroke-width:1}.st5,.st6{stroke:#bc2110}.st5{marker-end:url(#mrkr4-15);stroke-dasharray:2.25,2.25;stroke-linecap:round;stroke-linejoin:round;stroke-width:.75}.st6{fill:#bc2110;fill-opacity:1;stroke-opacity:1;stroke-width:.22935779816514}.st7{fill:#fff;stroke:none;stroke-linecap:butt;stroke-width:7.2}.st8,.st9{fill:#5f1008;font-family:Franklin Gothic Demi;font-size:.666664em}.st9{fill:#a0360a;font-size:1.00001em}.st10,.st11{stroke:#008cd8}.st10{marker-end:url(#mrkr4-26);stroke-linecap:round;stroke-linejoin:round;stroke-width:.75}.st11{fill:#008cd8;fill-opacity:1;stroke-opacity:1;stroke-width:.22935779816514}.st12{fill:#002f49;font-family:Franklin Gothic Demi;font-size:.666664em}.st13{fill:#fff;stroke:#008cd8;stroke-linecap:round;stroke-linejoin:round;stroke-width:1}.st14{fill:#004b74;font-family:Franklin Gothic Demi;font-size:1.00001em}.st15,.st16{fill:#fff;stroke:none;stroke-linecap:butt}.st16{stroke:#005e3a;stroke-linecap:round;stroke-linejoin:round;stroke-width:1}.st17{fill:#005e3a;font-family:Franklin Gothic Demi;font-size:1.00001em}.st18{fill:red;font-size:1em}.st19{fill:#004c75;font-family:Franklin Gothic Demi;font-size:1.00001em}.st20{fill:#fff}.st21{stroke:#7030a0;stroke-linecap:round;stroke-linejoin:round;stroke-width:1}.st22{fill:#000;font-family:Franklin Gothic Demi;font-size:1.00001em}.st23,.st24{fill:#7030a0;font-size:1em}.st24{fill:#00663f}.st25{fill:#fff;stroke:#7030a0;stroke-linecap:round;stroke-linejoin:round;stroke-width:1}.st26{fill:#00653e;font-family:Franklin Gothic Demi;font-size:1.00001em}.st27,.st28{fill:#000;font-size:1em}.st28{fill:#00653e}.st29{fill:none;fill-rule:evenodd;font-size:12px;overflow:visible;stroke-linecap:square;stroke-miterlimit:3}</style><defs id="Markers"><g id="lend4"><path d="M 2 1 L 0 0 L 2 -1 L 2 1" style="stroke:none"/></g><marker id="mrkr4-15" class="st6" markerUnits="strokeWidth" orient="auto" overflow="visible" refX="-8.72"><use transform="scale(-4.36,-4.36)" xlink:href="#lend4"/></marker><marker id="mrkr4-26" class="st11" markerUnits="strokeWidth" orient="auto" overflow="visible" refX="-8.72"><use transform="scale(-4.36,-4.36)" xlink:href="#lend4"/></marker></defs><g><title>Page-1</title><g id="shape1-1" transform="translate(392.077,-355.475)"><title>Rectangle.1002</title><desc>x-crime-case: Email Harassment</desc><rect width="129.098" height="45.05" x="0" y="1142.95" class="st1"/><text x="29.69" y="1161.87" class="st2">x-crime-case:<tspan x="16.55" class="st3" dy="1.2em">Email Harassment</tspan></text></g><g id="shape2-5" transform="translate(392.351,-577.696)"><title>Rectangle.1021</title><desc>x-action: Access willselfdestruct.com</desc><rect width="129.098" height="42.955" x="0" y="1145.04" class="st4"/><text x="41.98" y="1155.72" class="st2">x-action:<tspan x="45.88" class="st3" dy="1.2em">Access </tspan><tspan x="11.22" class="st3" dy="1.2em">willselfdestruct.com</tspan></text></g><g id="shape3-10" transform="translate(447.694,-536.543)"><title>Dynamic connector.1024</title><desc>action_refs</desc><path d="M8.79 1188 L9.14 1153.39" class="st5"/><rect width="39.43" height="9.6" x="-10.715" y="1162.62" class="st7"/><text x="-10.71" y="1169.82" class="st8">action_refs</text></g><g id="shape4-18" transform="translate(391.8,-516.088)"><title>Rectangle.1006</title><desc>x-timeline</desc><rect width="129.375" height="20.455" x="0" y="1167.54" class="st4"/><text x="40.15" y="1181.37" class="st9">x-timeline</text></g><g id="shape5-21" transform="translate(447.557,-516.088)"><title>Dynamic connector.1192</title><desc>reconstructed_from_ref</desc><path d="M8.93 1188 L9.06 1297.02" class="st10"/><rect width="82.851" height="9.6" x="-32.426" y="1240.98" class="st7"/><text x="-32.43" y="1248.18" class="st12">reconstructed_from_ref</text></g><g id="shape1008-29" transform="translate(391.65,-677.992)"><title>Rectangle.1001</title><desc>indicator: accessed the website</desc><rect width="130.5" height="42.955" x="0" y="1145.04" class="st13"/><text x="40.27" y="1162.92" class="st14">i<tspan class="st3">ndicator:</tspan><tspan x="8.4" class="st3" dy="1.2em">accessed the website</tspan></text></g><g id="shape1009-34" transform="translate(391.65,-768.001)"><title>Rectangle.1027</title><desc>observed-data</desc><rect width="125.85" height="29.999" x="0" y="1158" class="st13"/><text x="25.78" y="1176.6" class="st14">observed-data</text></g><g id="shape1010-37" transform="translate(447.9,-620.651)"><title>Dynamic connector.1028</title><desc>indicated-by</desc><path d="M9 1188 L9 1137.2" class="st10"/><rect width="42.758" height="9.6" x="-12.379" y="1154.53" class="st7"/><text x="-12.38" y="1161.73" class="st12">i<tspan class="st3">ndicated</tspan><tspan class="st3">-</tspan><tspan class="st3">by</tspan></text></g><g id="shape1011-47" transform="translate(464.738,-720.947)"><title>Dynamic connector.1032</title><desc>based-on</desc><path d="M-7.84 1188 L-7.84 1174.5 L-10.16 1174.5 L-10.16 1147.49" class="st10"/><rect width="31.796" height="9.6" x="-26.061" y="1160.84" class="st7"/><text x="-26.06" y="1168.04" class="st12">based-on</text></g><g id="shape1014-54" transform="translate(389.1,-852.848)"><title>Rectangle.1075</title><desc>network-traffic</desc><rect width="130.5" height="29.999" x="0" y="1158" class="st13"/><text x="26.28" y="1176.6" class="st14">network-traffic</text></g><g id="shape1015-57" transform="translate(463.438,-797.999)"><title>Dynamic connector.1035</title><desc>object_refs</desc><path d="M-8.91 1188 L-9.07 1139.69" class="st10"/><rect width="39.367" height="9.6" x="-27.363" y="1152.84" class="st15"/><text x="-27.36" y="1160.04" class="st12">object_refs</text></g><g id="shape1016-64" transform="translate(607.5,-915.001)"><title>Rectangle.1016</title><desc>ip4-addr</desc><rect width="85.5" height="29.999" x="0" y="1158" class="st13"/><text x="21.05" y="1176.6" class="st14">ip4-addr</text></g><g id="shape1017-67" transform="translate(605.25,-852.848)"><title>Rectangle.1017</title><desc>domain-name</desc><rect width="85.5" height="29.999" x="0" y="1158" class="st13"/><text x="6.98" y="1176.6" class="st14">domain-name</text></g><g id="shape1018-70" transform="translate(519.6,-867.848)"><title>Dynamic connector.1018</title><desc>src_ref</desc><path d="M0 1188 L12.37 1182.12 A3 3 0 1 1 17.78 1179.54 L93.21 1143.66" class="st10"/><rect width="24.27" height="9.6" x="38.517" y="1158.07" class="st7"/><text x="38.52" y="1165.27" class="st12">src_ref</text></g><g id="shape1019-77" transform="translate(519.6,-858.848)"><title>Dynamic connector.1019</title><desc>dst_ref</desc><path d="M0 1179 L12.08 1179 A3 3 0 0 1 18.08 1179 L79.11 1179" class="st10"/><rect width="24.527" height="9.6" x="31.852" y="1173.27" class="st7"/><text x="31.85" y="1180.47" class="st12">dst_ref</text></g><g id="shape1020-84" transform="translate(760.5,-633.099)"><title>Rectangle.1020</title><desc>indicator: submitted a form that forms a harassment email</desc><rect width="146.25" height="42.955" x="0" y="1145.04" class="st13"/><text x="48.15" y="1155.72" class="st14">i<tspan class="st3">ndicator:</tspan><tspan x="15.93" class="st3" dy="1.2em">submitted a form that </tspan><tspan x="4.72" class="st3" dy="1.2em">forms a harassment email</tspan></text></g><g id="shape1021-90" transform="translate(824.625,-567)"><title>Dynamic connector.1021</title><desc>indicated-by</desc><path d="M9 1188 L9 1128.44" class="st10"/><rect width="42.758" height="9.6" x="-12.379" y="1150.15" class="st7"/><text x="-12.38" y="1157.35" class="st12">i<tspan class="st3">ndicated</tspan><tspan class="st3">-</tspan><tspan class="st3">by</tspan></text></g><g id="shape1024-100" transform="translate(760.5,-711)"><title>Rectangle.1024</title><desc>observed-data</desc><rect width="130.5" height="20.455" x="0" y="1167.54" class="st13"/><text x="28.1" y="1181.37" class="st14">observed-data</text></g><g id="shape1025-103" transform="translate(803.25,-690.001)"><title>Dynamic connector.1025</title><desc>based-on</desc><path d="M0 1188 L22.5 1188 L22.5 1173.54" class="st10"/><rect width="31.796" height="9.6" x="5.851" y="1183.2" class="st7"/><text x="5.85" y="1190.4" class="st12">based-on</text></g><g id="shape1026-110" transform="translate(891,-721.228)"><title>Dynamic connector.1026</title><desc>object_refs</desc><path d="M0 1188 L13.5 1188 L13.5 1041.38 L-14.61 1041.38" class="st10"/><rect width="39.367" height="9.6" x="-4.853" y="1088.91" class="st7"/><text x="-4.85" y="1096.11" class="st12">object_refs</text></g><g id="shape1027-117" transform="translate(413.876,-273.001)"><title>Rectangle.1027</title><desc>threat-actor</desc><rect width="85.5" height="29.999" x="0" y="1158" class="st13"/><text x="11.46" y="1176.6" class="st14">threat-actor</text></g><g id="shape1028-120" transform="translate(27,-516.088)"><title>Rectangle.1028</title><desc>x-computer</desc><rect width="85.5" height="20.455" x="0" y="1167.54" class="st4"/><text x="14.63" y="1181.37" class="st9">x-computer</text></g><g id="shape1029-123" transform="translate(447.626,-355.475)"><title>Dynamic connector.1029</title><desc>has</desc><path d="M9 1188 L9 1233.94" class="st10"/><rect width="12.468" height="9.6" x="2.766" y="1209.44" class="st7"/><text x="2.77" y="1216.64" class="st12">has</text></g><g id="shape1031-130" transform="translate(69.75,-516.088)"><title>Dynamic connector.1031</title><desc>used-by</desc><path d="M0 1188 L0 1416.09 L53.25 1416.09 A3 3 0 0 1 59.25 1416.09 L337.59 1416.09" class="st10"/><rect width="26.687" height="9.6" x="44.675" y="1411.29" class="st7"/><text x="44.68" y="1418.49" class="st12">used-by</text></g><g id="shape1033-137" transform="translate(739.35,-852.848)"><title>Rectangle.1033</title><desc>network-traffic</desc><rect width="130.5" height="29.999" x="0" y="1158" class="st13"/><text x="26.28" y="1176.6" class="st14">network-traffic</text></g><g id="shape1034-140" transform="translate(157.5,-915.001)"><title>Rectangle.1034</title><desc>mac-add</desc><rect width="85.5" height="29.999" x="0" y="1158" class="st13"/><text x="20.22" y="1176.6" class="st14">mac-add</text></g><g id="shape1035-143" transform="translate(607.5,-921.001)"><title>Dynamic connector.1035</title><desc>resolves-to</desc><path d="M0 1179 L-69.82 1179 A3 3 -180 1 0 -75.82 1179 L-150.15 1179 A3 3 -180 1 0 -156.15 1179 L-357.96 1179" class="st10"/><rect width="38.066" height="9.6" x="-206.774" y="1175.13" class="st7"/><text x="-206.77" y="1182.33" class="st12">resolves-to</text></g><g id="shape1036-150" transform="translate(69.75,-536.543)"><title>Dynamic connector.1036</title><desc>has</desc><path d="M0 1188 L0 794.54 L81.21 794.54" class="st10"/><rect width="12.468" height="9.6" x="-6.234" y="942.597" class="st7"/><text x="-6.23" y="949.8" class="st12">has</text></g><g id="shape1037-157" transform="translate(605.25,-769.973)"><title>Rectangle.1037</title><desc>infrastructure</desc><rect width="85.5" height="29.999" x="0" y="1158" class="st13"/><text x="6.62" y="1176.6" class="st14">infrastructure</text></g><g id="shape1038-160" transform="translate(522.15,-699.469)"><title>Dynamic connector.1038</title><desc>indicates</desc><path d="M0 1188 L10.43 1177.26 A3 3 0 1 1 14.62 1172.96 L78.54 1107.19" class="st10"/><rect width="32.25" height="9.6" x="25.425" y="1140.45" class="st7"/><text x="25.43" y="1147.65" class="st12">indicates</text></g><g id="shape1039-167" transform="translate(760.5,-654.576)"><title>Dynamic connector.1039</title><desc>indicates</desc><path d="M0 1188 L-66.67 1063.37" class="st10"/><rect width="32.25" height="9.6" x="-51" y="1118" class="st7"/><text x="-51" y="1125.2" class="st12">indicates</text></g><g id="shape1040-174" transform="translate(639,-799.972)"><title>Dynamic connector.1040</title><desc>consists-of</desc><path d="M9 1188 L9 1141.66" class="st10"/><rect width="37.953" height="9.6" x="-8.646" y="1153.94" class="st7"/><text x="-8.65" y="1161.14" class="st12">consists-of</text></g><g id="shape1041-181" transform="translate(499.376,-288)"><title>Dynamic connector.1041</title><desc>ues</desc><path d="M0 1188 L148.62 1188 L148.62 712.57" class="st10"/><rect width="12.394" height="9.6" x="142.427" y="1016.53" class="st7"/><text x="142.43" y="1023.73" class="st12">ues</text></g><g id="shape1042-188" transform="translate(769.076,-524.045)"><title>Rectangle.1042</title><desc>x-action: submitted a harassment form</desc><rect width="129.098" height="42.955" x="0" y="1145.04" class="st4"/><text x="41.98" y="1155.72" class="st2">x-action:<tspan x="33.25" class="st3" dy="1.2em">s</tspan><tspan class="st3">ubmi</tspan>tted a <tspan x="19.81" class="st3" dy="1.2em">harassment form</tspan></text></g><g id="shape1043-194" transform="translate(521.175,-526.316)"><title>Dynamic connector.1043</title><desc>action_refs</desc><path d="M0 1188 L10.51 1187.19 A3 3 0 1 1 16.49 1186.72 L123.83 1178.41 A3 3 0 1 1 129.82 1177.94 L241.38 1169.3" class="st5"/><rect width="39.43" height="9.6" x="104.236" y="1173.6" class="st7"/><text x="104.24" y="1180.8" class="st8">action_refs</text></g><g id="shape1044-201" transform="translate(739.35,-858.848)"><title>Dynamic connector.1044</title><desc>dst_ref</desc><path d="M0 1179 L-42.06 1179" class="st10"/><rect width="24.527" height="9.6" x="-37.296" y="1175.13" class="st7"/><text x="-37.3" y="1182.33" class="st12">dst_ref</text></g><g id="shape1045-208" transform="translate(804.6,-882.847)"><title>Dynamic connector.1045</title><desc>src_ref</desc><path d="M0 1188 L-105.35 1155.82" class="st10"/><rect width="24.27" height="9.6" x="-69.889" y="1166.53" class="st7"/><text x="-69.89" y="1173.73" class="st12">src_ref</text></g><g id="shape1046-215" transform="translate(1024.4,-864)"><title>Rectangle.1046</title><desc>email-message</desc><rect width="129.098" height="29.999" x="0" y="1158" class="st13"/><text x="24.81" y="1176.6" class="st14">email-message</text></g><g id="shape1047-218" transform="translate(945,-813.001)"><title>Rectangle.1047</title><desc>email-addr</desc><rect width="85.5" height="29.999" x="0" y="1158" class="st13"/><text x="14.82" y="1176.6" class="st14">email-addr</text></g><g id="shape1048-221" transform="translate(1024.4,-878.999)"><title>Dynamic connector.1048</title><desc>to_refs</desc><path d="M0 1188 L-36.65 1188 L-36.65 1217.46" class="st10"/><rect width="24.492" height="9.6" x="-50.226" y="1186.76" class="st7"/><text x="-50.23" y="1193.96" class="st12">to_refs</text></g><g id="shape1051-228" transform="translate(955.475,-764.055)"><title>Rectangle.1051</title><desc>url</desc><rect width="64.549" height="21.946" x="0" y="1166.05" class="st13"/><text x="25.35" y="1180.63" class="st14">url</text></g><g id="shape1052-231" transform="translate(690.75,-789)"><title>Dynamic connector.1052</title><desc>consists-of</desc><path d="M0 1192.03 L13.5 1192.03 L13.5 1201.97 L110.85 1201.97 A3 3 0 0 1 116.85 1201.97 L210.75 1201.97 A3 3 0 0 1 216.75 1201.97 L237.75 1201.97 A3 3 0 0 1 243.75 1201.97 L258.19 1201.97" class="st10"/><rect width="37.953" height="9.6" x="123.091" y="1198.5" class="st7"/><text x="123.09" y="1205.7" class="st12">consists-of</text></g><g id="shape1054-238" transform="translate(1022.15,-633.099)"><title>Rectangle.1054</title><desc>indicator: An email contains a harassment link to the website</desc><rect width="130.5" height="54" x="0" y="1134" class="st13"/><text x="40.27" y="1143" class="st14">i<tspan class="st3">ndicator:</tspan><tspan x="13.32" class="st3" dy="1.2em">An email contains a </tspan><tspan x="6.04" class="st3" dy="1.2em">harassment link to the </tspan><tspan x="44.7" class="st3" dy="1.2em">website</tspan></text></g><g id="shape1055-245" transform="translate(1022.15,-722.045)"><title>Rectangle.1055</title><desc>observed-data</desc><rect width="130.5" height="29.999" x="0" y="1158" class="st13"/><text x="28.1" y="1176.6" class="st14">observed-data</text></g><g id="shape1056-248" transform="translate(1078.4,-687.099)"><title>Dynamic connector.1056</title><desc>based-on</desc><path d="M9 1188 L9 1159.59" class="st10"/><rect width="31.796" height="9.6" x="-6.898" y="1165.73" class="st7"/><text x="-6.9" y="1172.93" class="st12">based-on</text></g><g id="shape1057-255" transform="translate(1079.27,-752.044)"><title>Dynamic connector.1057</title><desc>object_refs</desc><path d="M8.32 1188 L9.6 1082.58" class="st10"/><rect width="39.367" height="9.6" x="-9.28" y="1121.26" class="st7"/><text x="-9.28" y="1128.46" class="st12">object_refs</text></g><g id="shape1058-262" transform="translate(1022.15,-737.044)"><title>Dynamic connector.1058</title><desc>object_refs</desc><path d="M0 1188 L-34.4 1188 L-34.4 1167.53" class="st10"/><rect width="39.367" height="9.6" x="-53.67" y="1181.87" class="st7"/><text x="-53.67" y="1189.07" class="st12">object_refs</text></g><g id="shape1061-269" transform="translate(1201.5,-813.446)"><title>Rectangle.1061</title><desc>indicator: A link leads to a harassment message</desc><rect width="130.5" height="54" x="0" y="1134" class="st13"/><text x="40.27" y="1150.2" class="st14">i<tspan class="st3">ndicator:</tspan><tspan x="23.18" class="st3" dy="1.2em">A link leads to a </tspan><tspan x="9.06" class="st3" dy="1.2em">harassment message</tspan></text></g><g id="shape1062-275" transform="translate(1201.5,-902.393)"><title>Rectangle.1062</title><desc>observed-data</desc><rect width="130.5" height="29.999" x="0" y="1158" class="st13"/><text x="28.1" y="1176.6" class="st14">observed-data</text></g><g id="shape1063-278" transform="translate(1257.75,-867.446)"><title>Dynamic connector.1063</title><desc>based-on</desc><path d="M9 1188 L9 1159.59" class="st10"/><rect width="31.796" height="9.6" x="-6.898" y="1165.73" class="st7"/><text x="-6.9" y="1172.93" class="st12">based-on</text></g><g id="shape1066-285" transform="translate(1216.51,-954.348)"><title>Rectangle.1066</title><desc>x-webpage</desc><rect width="100.475" height="29.999" x="0" y="1158" class="st16"/><text x="21.92" y="1176.6" class="st17">x-webpage</text></g><g id="shape1067-288" transform="translate(1216.51,-969.347)"><title>Dynamic connector.1067</title><desc>url_ref</desc><path d="M0 1188 L-28.51 1188 L-28.51 1382.32 L-125.65 1382.32 A3 3 -180 0 0 -131.65 1382.32 L-189.95 1382.32" class="st10"/><rect width="22.844" height="9.6" x="-41.265" y="1370.97" class="st7"/><text x="-41.26" y="1378.17" class="st12">url_ref</text></g><g id="shape1068-295" transform="translate(1275.75,-932.391)"><title>Dynamic connector.1068</title><desc>object_refs</desc><path d="M-9 1188 L-9 1172.58" class="st10"/><rect width="39.367" height="9.6" x="-27.353" y="1171.05" class="st7"/><text x="-27.35" y="1178.25" class="st12">object_refs</text></g><g id="shape1069-302" transform="translate(588.025,-967.5)"><title>Rectangle.1069</title><desc>x-investigation-tool: Wireshark</desc><rect width="117" height="42.955" x="0" y="1145.04" class="st4"/><text x="6.67" y="1162.92" class="st9">x-investigation-tool:<tspan x="31.69" class="st3" dy="1.2em">Wireshark</tspan></text></g><g id="shape1070-306" transform="translate(603.775,-1056)"><title>Rectangle.1070</title><desc>file: nitroba.pcap</desc><rect width="85.5" height="29.999" x="0" y="1158" class="st13"/><text x="32.9" y="1169.4" class="st14">file: <tspan x="9.61" class="st3" dy="1.2em">nitroba.pcap</tspan></text></g><g id="shape1071-310" transform="translate(637.525,-1010.46)"><title>Dynamic connector.1108</title><desc>inputs_refs</desc><path d="M9 1188 L9 1148.99" class="st10"/><rect width="39.156" height="9.6" x="-10.578" y="1160.43" class="st7"/><text x="-10.58" y="1167.63" class="st12">inputs_refs</text></g><g id="shape1072-317" transform="translate(588.025,-988.978)"><title>Dynamic connector.1104</title><desc>outputs_refs</desc><path d="M0 1188 L-50.35 1188 A3 3 -180 0 0 -56.35 1188 L-133.67 1188 L-133.67 1287.59" class="st10"/><rect width="44.07" height="9.6" x="-141.937" y="1183.2" class="st7"/><text x="-141.94" y="1190.4" class="st12">outputs_refs</text></g><g id="shape1073-324" transform="translate(705.025,-988.978)"><title>Dynamic connector.1073</title><desc>outputs_refs</desc><path d="M0 1188 L99.58 1188 L99.58 1287.59" class="st10"/><rect width="44.07" height="9.6" x="77.54" y="1186.48" class="st7"/><text x="77.54" y="1193.68" class="st12">outputs_refs</text></g><g id="shape1074-331" transform="translate(521.175,-378)"><title>Dynamic connector.1074</title><desc>case_file_refs</desc><path d="M0 1188 L13.5 1188 L13.5 495 L76.06 495" class="st10"/><rect width="48.965" height="9.6" x="-10.982" y="808.9" class="st7"/><text x="-10.98" y="816.1" class="st12">case_file_refs</text></g><g id="shape1075-338" transform="translate(229.5,-639)"><title>Rectangle.1075</title><desc>indicator: Suspect’s name matches email address</desc><rect width="130.5" height="42.955" x="0" y="1145.04" class="st13"/><text x="40.27" y="1155.72" class="st14">i<tspan class="st3">ndicator:</tspan><tspan x="23.48" class="st3" dy="1.2em">Suspect</tspan>’s name <tspan x="4.29" class="st3" dy="1.2em">matches email address</tspan></text></g><g id="shape1078-344" transform="translate(229.5,-738)"><title>Rectangle.1078</title><desc>observed-data</desc><rect width="130.5" height="29.999" x="0" y="1158" class="st13"/><text x="28.1" y="1176.6" class="st14">observed-data</text></g><g id="shape1079-347" transform="translate(285.75,-681.955)"><title>Dynamic connector.1079</title><desc>based-on</desc><path d="M9 1188 L9 1138.5" class="st10"/><rect width="31.796" height="9.6" x="-6.898" y="1155.18" class="st7"/><text x="-6.9" y="1162.38" class="st12">based-on</text></g><g id="shape1080-354" transform="translate(294.75,-767.999)"><title>Dynamic connector.1080</title><desc>object_refs</desc><path d="M0 1188 L0 1088.15 L87.81 1088.15" class="st10"/><rect width="39.367" height="9.6" x="-12.056" y="1084.68" class="st7"/><text x="-12.06" y="1091.88" class="st12">object_refs</text></g><g id="shape1081-361" transform="translate(360,-752.999)"><title>Dynamic connector.1081</title><desc>object_refs</desc><path d="M0 1188 L91.58 1188 A3 3 0 0 1 97.58 1188 L171.68 1188 A3 3 0 0 1 177.68 1188 L211.18 1188 A3 3 0 0 1 217.18 1188 L285 1188 A3 3 0 1 1 291 1188 L344.85 1188 A3 3 0 1 1 350.85 1188 L444.6 1188 L444.6 1094.69" class="st10"/><rect width="39.367" height="9.6" x="281.633" y="1184.53" class="st7"/><text x="281.63" y="1191.73" class="st12">object_refs</text></g><g id="shape1082-368" transform="translate(119.25,-612)"><title>Rectangle.1082</title><desc>file: roster.txt</desc><rect width="85.5" height="29.999" x="0" y="1158" class="st13"/><text x="7.14" y="1176.6" class="st14">file: roster.txt</text></g><g id="shape1083-371" transform="translate(111.762,-798.001)"><title>Rectangle.1083</title><desc>artifact: Johnny Coach</desc><rect width="100.475" height="29.999" x="0" y="1158" class="st13"/><text x="29.31" y="1169.4" class="st14">artifact: <tspan x="14.16" class="st18" dy="1.2em">Johnny Coac</tspan><tspan class="st18">h</tspan></text></g><g id="shape1084-376" transform="translate(153,-641.999)"><title>Dynamic connector.1084</title><desc>content_ref</desc><path d="M9 1188 L9 1038.54" class="st10"/><rect width="40.672" height="9.6" x="-11.336" y="1105.2" class="st7"/><text x="-11.34" y="1112.4" class="st12">content_ref</text></g><g id="shape1085-383" transform="translate(229.869,-752.999)"><title>Dynamic connector.1085</title><desc>object_refs</desc><path d="M-0.37 1188 L-7.12 1188 L-7.12 1128 L-11.09 1128" class="st10"/><rect width="39.367" height="9.6" x="-25.472" y="1147.19" class="st15"/><text x="-25.47" y="1154.39" class="st12">object_refs</text></g><g id="shape1086-390" transform="translate(392.077,-378)"><title>Dynamic connector.1086</title><desc>case_file_refs</desc><path d="M0 1188 L-230.08 1188 L-230.08 960.54" class="st10"/><rect width="48.965" height="9.6" x="-254.559" y="1181.24" class="st7"/><text x="-254.56" y="1188.44" class="st12">case_file_refs</text></g><g id="shape1087-397" transform="translate(131.4,-222.75)"><title>Rectangle.1087</title><desc>identity: Johnny Coach</desc><rect width="102.6" height="35.999" x="0" y="1152" class="st13"/><text x="29.95" y="1166.4" class="st14">identity:<tspan x="15.22" class="st18" dy="1.2em">Johnny Coac</tspan><tspan class="st18">h</tspan></text></g><g id="shape1088-402" transform="translate(456.626,-273.001)"><title>Dynamic connector.1088</title><desc>attributed-to</desc><path d="M0 1188 L0 1220.25 L-216.09 1220.25" class="st10"/><rect width="44.101" height="9.6" x="-117.238" y="1215.45" class="st7"/><text x="-117.24" y="1222.65" class="st12">attributed-to</text></g><g id="shape1089-409" transform="translate(562.5,-199.264)"><title>Rectangle.1089</title><desc>identity: Lily Tuckrige</desc><rect width="99" height="34.736" x="0" y="1153.26" class="st13"/><text x="28.15" y="1167.03" class="st19">identity:<tspan x="16.41" class="st18" dy="1.2em">Lily Tuckrige</tspan></text></g><g id="shape1090-413" transform="translate(456.626,-273.001)"><title>Dynamic connector.1090</title><desc>targets</desc><path d="M0 1188 L0 1244.37 L99.33 1244.37" class="st10"/><rect width="25.222" height="9.6" x="12.142" y="1239.57" class="st7"/><text x="12.14" y="1246.77" class="st12">targets</text></g><g id="shape1091-420" transform="translate(661.5,-216.632)"><title>Dynamic connector.1091</title><desc>related-to</desc><path d="M0 1188 L270 1188 L270 576.63 L276.96 576.63" class="st10"/><rect width="34.066" height="9.6" x="252.967" y="1005.77" class="st7"/><text x="252.97" y="1012.97" class="st12">related-to</text></g><g id="shape1092-427" transform="translate(131.4,-240.749)"><title>Dynamic connector.1092</title><desc>related-to</desc><path d="M0 1188 L-5.4 1188 L-5.4 830.25 L-33.14 830.25 L-33.14 615.75 L-26.18 615.75" class="st10"/><rect width="34.066" height="9.6" x="-22.433" y="879.156" class="st7"/><text x="-22.43" y="886.36" class="st12">related-to</text></g><g id="shape1093-434" transform="translate(288,-445.5)"><title>Rectangle.1067</title><desc>x-investigator:</desc><rect width="107.066" height="31.5" x="0" y="1156.5" class="st4"/><text x="16.17" y="1168.65" class="st2">x-investigator<tspan class="st3">:</tspan></text></g><g id="shape1094-438" transform="translate(341.533,-445.5)"><title>Dynamic connector.1012</title><desc>investigates</desc><path d="M0 1188 L71.04 1229.67" class="st10"/><rect width="42.75" height="9.6" x="16.968" y="1205.69" class="st7"/><text x="16.97" y="1212.89" class="st12">investigates</text></g><g id="shape1095-445" transform="translate(391.8,-526.316)"><title>Dynamic connector.1095</title><desc>reconstructed_by_ref</desc><path d="M0 1188 L-45.6 1232.74" class="st10"/><rect width="74.558" height="9.6" x="-62.413" y="1207.86" class="st7"/><text x="-62.41" y="1215.06" class="st12">reconstructed_by<tspan class="st3">_ref</tspan></text></g><g id="group1012-453" transform="translate(675.15,-364.5)"><title>Note.1193</title><desc>[network-traffic:src_ref.value=&apos;192.168.15.4&apos; AND network-tra...</desc><g id="shape1012-454"><path d="M0 1188 L218.1 1188 L218.1 1084.5 L209.1 1075.5 L0 1075.5 L0 1188 Z" class="st20"/><path d="M0 1075.5 L-193.03 874.51" class="st21"/><path d="M0 1188 L218.1 1188 L218.1 1084.5 L209.1 1075.5 L0 1075.5 L0 1188" class="st21"/><text x="4" y="1092.15" class="st22">[network-<tspan x="4" class="st3" dy="1.2em">traffic:src_ref.value=</tspan><tspan class="st23">&apos;192.168.15.4</tspan><tspan class="st24">&apos; </tspan><tspan x="4" class="st18" dy="1.2em">AND </tspan>network-<tspan x="4" class="st3" dy="1.2em">traffic:dst_ref.value=</tspan><tspan class="st23">&apos;www.willselfdestr</tspan><tspan x="4" class="st23" dy="1.2em">uct.com&apos; </tspan><tspan class="st18">AND</tspan><tspan x="4" class="st3" dy="1.2em">infrastrcture:consists</tspan>-<tspan x="4" class="st3" dy="1.2em">of.value=</tspan><tspan class="st23">&apos;www.willselfdestruct.com&apos; </tspan><tspan class="st24">]</tspan></text></g><g id="shape1013-471" transform="translate(209.1,-103.5)"><title>Sheet.1013</title><path d="M0 1188 L9 1188 L9 1188.9 L9 1188 L0 1179 L-0.9 1179 L0 1179 L0 1188 Z" class="st25"/></g></g><g id="group1022-473" transform="translate(964.425,-339.955)"><title>Note.1022</title><desc>[network-traffic:extensions.http-request-ext.request_method=&apos;...</desc><g id="shape1022-474"><path d="M0 1188 L400.2 1188 L400.2 1030.5 L391.2 1021.5 L0 1021.5 L0 1188 Z" class="st20"/><path d="M0 1021.5 L-100.08 894.86" class="st21"/><path d="M0 1188 L400.2 1188 L400.2 1030.5 L391.2 1021.5 L0 1021.5 L0 1188" class="st21"/><text x="4" y="1036.35" class="st26">[<tspan class="st27">network</tspan><tspan class="st27">-</tspan><tspan class="st27">traffic:extensions.http</tspan><tspan class="st27">-</tspan><tspan class="st27">request</tspan><tspan class="st27">-</tspan><tspan class="st27">ext.request_method=</tspan><tspan class="st23">&apos;POST&apos; </tspan><tspan class="st18">AND</tspan><tspan x="4" class="st27" dy="1.2em">network</tspan><tspan class="st27">-</tspan><tspan class="st27">traffic:extensions.http</tspan><tspan class="st27">-</tspan><tspan class="st27">request</tspan><tspan class="st27">-</tspan><tspan x="4" class="st27" dy="1.2em">ext.request_header.host=</tspan><tspan class="st24">&apos;</tspan><tspan class="st23">www.willselfdestruct.com</tspan><tspan class="st24">&apos;&apos; </tspan><tspan class="st18">AND</tspan><tspan x="4" class="st27" dy="1.2em">network</tspan><tspan class="st27">-</tspan><tspan class="st27">traffic:extensions.http</tspan><tspan class="st27">-</tspan><tspan class="st27">request</tspan><tspan class="st27">-</tspan><tspan class="st27">ext.request_header.Content</tspan><tspan class="st27">-</tspan><tspan class="st27">Type. </tspan><tspan x="4" class="st27" dy="1.2em">application/x</tspan><tspan class="st27">-</tspan><tspan class="st27">www</tspan><tspan class="st27">-</tspan><tspan class="st27">form</tspan><tspan class="st27">-</tspan><tspan class="st27">urlencoded.to=</tspan><tspan class="st23">&apos;lilytruckrige@yahoo.com&apos;</tspan><tspan class="st24"> </tspan><tspan class="st18">AND</tspan><tspan x="4" class="st27" dy="1.2em">network</tspan><tspan class="st27">-</tspan><tspan class="st27">traffic:extensions.http</tspan><tspan class="st27">-</tspan><tspan class="st27">request</tspan><tspan class="st27">-</tspan><tspan class="st27">ext.request_header.Content</tspan><tspan class="st27">-</tspan><tspan class="st27">Type. </tspan><tspan x="4" class="st27" dy="1.2em">application/x</tspan><tspan class="st27">-</tspan><tspan class="st27">www</tspan><tspan class="st27">-</tspan><tspan class="st27">form</tspan><tspan class="st27">-</tspan><tspan class="st27">urlencoded.subject=</tspan><tspan class="st23">&apos;you can&apos;t find us&apos;</tspan><tspan class="st24"> </tspan><tspan class="st18">AND</tspan><tspan x="4" class="st27" dy="1.2em">network</tspan><tspan class="st27">-</tspan><tspan class="st27">traffic:extensions.http</tspan><tspan class="st27">-</tspan><tspan class="st27">request</tspan><tspan class="st27">-</tspan><tspan class="st27">ext.request_header.Content</tspan><tspan class="st27">-</tspan><tspan class="st27">Type. </tspan><tspan x="4" class="st27" dy="1.2em">application/x</tspan><tspan class="st27">-</tspan><tspan class="st27">www</tspan><tspan class="st27">-</tspan><tspan class="st27">form</tspan><tspan class="st27">-</tspan><tspan class="st27">urlencoded.message=</tspan><tspan class="st23">&apos;and you can&apos;t hide from us. </tspan><tspan x="4" class="st23" dy="1.2em">Stop teaching.&apos; </tspan><tspan class="st18">AND</tspan><tspan x="4" class="st27" dy="1.2em">infrastrcture:consists</tspan><tspan class="st27">-</tspan><tspan class="st27">of.value=</tspan><tspan class="st23">&apos;www.willselfdestruct.com&apos;</tspan><tspan class="st24"> </tspan><tspan class="st24">]</tspan></text></g><g id="shape1023-562" transform="translate(391.2,-157.5)"><title>Sheet.1023</title><path d="M0 1188 L9 1188 L9 1188.9 L9 1188 L0 1179 L-0.9 1179 L0 1179 L0 1188 Z" class="st25"/></g></g><g id="group1059-564" transform="translate(1022.15,-544.152)"><title>Note.1059</title><desc>[url:value=&apos;www.willselfdestruct.com&apos; AND email-message:body ...</desc><g id="shape1059-565"><path d="M0 1188 L230.04 1188 L230.04 1143 L221.04 1134 L0 1134 L0 1188 Z" class="st20"/><path d="M99.91 1134 L80.36 1099.05" class="st21"/><path d="M0 1188 L230.04 1188 L230.04 1143 L221.04 1134 L0 1134 L0 1188" class="st21"/><text x="4" y="1150.2" class="st26">[<tspan class="st27">url:value=</tspan>&apos;<tspan class="st23">www.willselfdestruct.com</tspan><tspan class="st24">&apos; </tspan><tspan class="st18">AND</tspan> <tspan x="4" class="st27" dy="1.2em">email</tspan><tspan class="st27">-</tspan><tspan class="st27">message:body MATCHES </tspan><tspan x="4" class="st3" dy="1.2em">&apos;</tspan><tspan class="st23">www.willselfdestruct.com</tspan><tspan class="st24">&apos;</tspan>]</text></g><g id="shape1060-580" transform="translate(221.042,-45)"><title>Sheet.1060</title><path d="M0 1188 L9 1188 L9 1188.9 L9 1188 L0 1179 L-0.9 1179 L0 1179 L0 1188 Z" class="st25"/></g></g><g id="group1064-582" transform="translate(1201.5,-671.044)"><title>Note.1064</title><desc>[webpage:url_ref:value=&apos;www.willselfdestruct.com&apos; AND webpage...</desc><g id="shape1064-583"><path d="M0 1188 L283.5 1188 L283.5 1116 L274.5 1107 L0 1107 L0 1188 Z" class="st20"/><path d="M117.71 1107 L81.27 1045.6" class="st21"/><path d="M0 1188 L283.5 1188 L283.5 1116 L274.5 1107 L0 1107 L0 1188" class="st21"/><text x="4" y="1122.3" class="st22">[webpage:url_ref:value=<tspan class="st28">&apos;</tspan><tspan class="st23">www.willselfdestruct.com</tspan><tspan class="st24">&apos; </tspan><tspan x="4" class="st18" dy="1.2em">AND</tspan><tspan class="st28"> </tspan><tspan x="4" class="st3" dy="1.2em">webpage:content MATCHES </tspan><tspan class="st28">&apos;</tspan><tspan class="st23">you can&apos;t find us</tspan><tspan class="st28">&apos; </tspan><tspan class="st18">AND </tspan><tspan x="4" class="st3" dy="1.2em">webpage:content MATCHES</tspan><tspan class="st28"> </tspan><tspan class="st18"> </tspan><tspan class="st23">&apos;and you can&apos;t hide </tspan><tspan x="4" class="st23" dy="1.2em">from us. Stop teaching.&apos;</tspan><tspan class="st28">]</tspan></text></g><g id="shape1065-604" transform="translate(274.5,-72)"><title>Sheet.1065</title><path d="M0 1188 L9 1188 L9 1188.9 L9 1188 L0 1179 L-0.9 1179 L0 1179 L0 1188 Z" class="st25"/></g></g><g id="group1076-606" transform="translate(261,-1008)"><title>Note.1076</title><desc>[network-traffic:extensions.http-request-ext.request_header.C...</desc><g id="shape1076-607"><path d="M0 1188 L218.1 1188 L218.1 1129.5 L209.1 1120.5 L0 1120.5 L0 1188 Z" class="st20"/><path d="M102.38 1188 L37.99 1514.04" class="st21"/><path d="M0 1188 L218.1 1188 L218.1 1129.5 L209.1 1120.5 L0 1120.5 L0 1188" class="st21"/><text x="4" y="1136.25" class="st22">[network-traffic:extensions.http-<tspan x="4" class="st3" dy="1.2em">request</tspan>-ext.request_header.Cookie <tspan x="4" class="st3" dy="1.2em">MATCH </tspan><tspan class="st23">&apos;jocahj@gmail.com</tspan>&apos;<tspan class="st24"> </tspan><tspan class="st18">AND</tspan><tspan x="4" class="st3" dy="1.2em">artifact:payload_bin=</tspan><tspan class="st23">&apos;Johnny Coach&apos;</tspan>]</text></g><g id="shape1077-619" transform="translate(209.1,-58.5)"><title>Sheet.1077</title><path d="M0 1188 L9 1188 L9 1188.9 L9 1188 L0 1179 L-0.9 1179 L0 1179 L0 1188 Z" class="st25"/></g></g></g></svg>